<?xml version="1.0" encoding="utf-8"?>
<svg viewBox="144.354248046875 307.7528076171875 427.8004150390625 238.09991455078125" width="427.8004150390625" height="238.09991455078125" xmlns="http://www.w3.org/2000/svg"><g transform="matrix(1, 0, 0, 1, 0, 0)"><g transform="matrix(1, 0, 0, 1, -100.44575500488281, -83.44724273681642)">
		<path class="st4" d="M394.1,560.7c-1.1,0-2.2,0.1-3.2,0.1c-1.1,0-2.2,0-3.2,0c-1.1,0-2.2-0.3-3.2-0.3c-1.1,0-2.2,0-3.2,0&#10;&#9;&#9;&#9;c-1.1,0-2.2,0.2-3.2,0.2c-1.2,0-2.4-0.1-3.5,0.2c-1.1,0.3-2.2,0.7-3.2,1.4c-1,0.7-1.8,1-2.8,1c-1,0-2-0.1-2.9-0.9&#10;&#9;&#9;&#9;c-0.8-0.7-1.7-1.2-2.6-1.6c-0.9-0.4-1.9-0.6-2.9-0.8c-1-0.2-2-0.5-3-0.6c-1.2-0.1-2.4,0-3.5-0.1c-1.2-0.1-2.3-0.2-3.5-0.3&#10;&#9;&#9;&#9;c-1.2-0.1-2.3-0.7-3.4-0.8c-1.2-0.2-2.3-0.3-3.5-0.5c-1.2-0.2-2.4-0.1-3.5-0.3c-1.2-0.2-2.2-0.7-3.4-1c-1.1-0.2-2.3-0.4-3.4-0.6&#10;&#9;&#9;&#9;c-1.1-0.3-2.3-0.3-3.5-0.6c-1.1-0.3-2.2-0.8-3.3-1.1c-1.1-0.3-2.2-0.7-3.3-1.1c-1.1-0.3-2.3-0.6-3.4-1c-1.1-0.4-2.3-0.7-3.4-1.1&#10;&#9;&#9;&#9;c-1.1-0.4-2.2-0.9-3.2-1.4c-1.1-0.5-2.2-0.9-3.2-1.4c-1-0.5-2-1.2-3.1-1.8c-1-0.6-2-1.2-3-1.8c-1.2-0.8-2.3-1.6-3.4-2.5&#10;&#9;&#9;&#9;c-1.1-0.9-1.8-2.1-2.8-3.2c-0.8-1-1.5-1.9-2.2-2.9c-0.7-1.1-1.4-2-1.9-3.1c-0.5-1.1-0.7-2.3-0.9-3.5c-0.2-1.2-0.7-2.4-0.8-3.6&#10;&#9;&#9;&#9;c0-1.2,0.5-2.4,0.7-3.6c0.2-1.2,0.2-2.4,0.6-3.6c0.3-1,0.8-2,1.3-2.9c0.4-1,0.8-2,1.3-2.9c0.5-0.9,1.1-1.8,1.7-2.7&#10;&#9;&#9;&#9;c0.6-0.9,1-1.9,1.6-2.8c0.7-0.9,1.7-1.6,2.4-2.5c0.7-0.9,1.5-1.7,2.3-2.5c0.8-0.8,1.4-1.9,2.2-2.7c0.8-0.8,1.6-1.6,2.5-2.4&#10;&#9;&#9;&#9;c0.9-0.8,1.7-1.5,2.6-2.3c0.8-0.7,1.9-1.1,2.7-1.8c0.8-0.7,1.7-1.4,2.6-2c0.9-0.7,1.7-1.4,2.6-2c0.9-0.6,1.9-1.1,2.8-1.7&#10;&#9;&#9;&#9;c0.9-0.6,1.6-1.5,2.5-2.1c0.9-0.6,1.9-1,2.8-1.6c0.9-0.6,1.7-1.3,2.7-1.9c1-0.6,2-1.3,3-1.9c1-0.6,2.2-1,3.2-1.6&#10;&#9;&#9;&#9;c1-0.6,2-1.3,3-1.9c1-0.6,2.2-0.8,3.3-1.4c1-0.6,2.1-1.2,3.1-1.7c1.1-0.5,2-1.4,3-1.9c1.1-0.5,2.3-0.8,3.3-1.3&#10;&#9;&#9;&#9;c1.1-0.5,2.2-1,3.2-1.5c1.1-0.5,2.2-1,3.2-1.5c1.1-0.5,2.2-1,3.3-1.4c1.1-0.5,2-1.3,3.1-1.8c1.1-0.5,2.2-0.9,3.3-1.3&#10;&#9;&#9;&#9;c1.1-0.5,2.1-1,3.2-1.5c1.1-0.5,2.3-0.5,3.4-1c1.1-0.4,2-1.1,3.1-1.5c1.1-0.4,2.2-0.6,3.2-1c1.1-0.4,2.1-0.8,3.2-1.2&#10;&#9;&#9;&#9;c1.1-0.4,2.1-0.7,3.2-1.1c1.1-0.4,2-1,3.1-1.4c1.1-0.4,2.1-0.7,3.2-1.1c1.1-0.4,2.2-0.7,3.2-1.1c1.1-0.4,2.1-0.9,3.2-1.3&#10;&#9;&#9;&#9;c1.1-0.4,2.2-0.7,3.2-1.1c1.1-0.4,2.2-0.7,3.2-1c1.1-0.3,2.1-0.8,3.2-1.1c1.1-0.3,2.3-0.4,3.3-0.7c1.1-0.3,2.1-0.9,3.2-1.2&#10;&#9;&#9;&#9;c1.1-0.3,2.2-0.7,3.2-1c1.1-0.3,2.2-0.6,3.3-0.9c1.1-0.3,2.2-0.7,3.2-1c1.1-0.3,2.2-0.6,3.3-0.9c1.1-0.3,2.3-0.2,3.4-0.5&#10;&#9;&#9;&#9;c1.1-0.3,2.1-0.8,3.2-1.1c1.1-0.3,2.2-0.7,3.3-0.9c1.1-0.3,2.2-0.6,3.3-0.9c1.1-0.3,2.2-0.4,3.3-0.6c1.2-0.3,2.3-0.7,3.4-1&#10;&#9;&#9;&#9;c1.2-0.3,2.3-0.5,3.5-0.8c1.2-0.3,2.3-0.6,3.4-0.9c1.2-0.3,2.3-0.4,3.5-0.6c1.2-0.3,2.3-0.4,3.5-0.7c1.2-0.3,2.2-0.9,3.4-1.1&#10;&#9;&#9;&#9;c1.2-0.2,2.4-0.1,3.6-0.4c1.2-0.2,2.3-0.7,3.4-1c1.2-0.2,2.4-0.2,3.5-0.4c1.2-0.2,2.3-0.8,3.4-1c1.2-0.2,2.4-0.2,3.6-0.4&#10;&#9;&#9;&#9;c1.2-0.2,2.3-0.6,3.5-0.8c1.2-0.2,2.4-0.2,3.6-0.4c1.2-0.2,2.3-0.6,3.5-0.8c1.2-0.2,2.4-0.4,3.6-0.6c1.2-0.2,2.4-0.4,3.6-0.6&#10;&#9;&#9;&#9;c1.2-0.2,2.4-0.2,3.6-0.4c1.2-0.2,2.4-0.5,3.6-0.7c1.2-0.2,2.4-0.4,3.6-0.5c1.2-0.2,2.4-0.3,3.6-0.5c1.2-0.2,2.4,0,3.6-0.1&#10;&#9;&#9;&#9;c1.2-0.1,2.4-0.5,3.6-0.6c1.2-0.1,2.3-0.1,3.5-0.2c1.2-0.1,2.3-0.3,3.5-0.4c1.2-0.1,2.3-0.4,3.5-0.5c1.2-0.1,2.3-0.2,3.5-0.3&#10;&#9;&#9;&#9;c1.2-0.1,2.4,0.2,3.5,0.1c1.2-0.1,2.3-0.3,3.5-0.4c1.2-0.1,2.3-0.2,3.5-0.3c1.2-0.1,2.3-0.5,3.5-0.5c1.2-0.1,2.3,0.1,3.5,0&#10;&#9;&#9;&#9;c1.2-0.1,2.3-0.2,3.5-0.2c1.4-0.1,2.7-0.4,3.9-0.8c1.2-0.5,2.5-1,3.5-2c0.5-0.5,1-1.1,1.6-1.4c0.9-0.5,1.7-0.6,2.6-0.6&#10;&#9;&#9;&#9;c0.9,0,1.7,0.1,2.6,0.6c0.7,0.4,1.4,1,2,1.5c0.9,0.8,1.8,1.3,2.8,1.6c1,0.4,2.1,0.4,3.2,0.4c1.1,0,2.2,0.1,3.4,0.1&#10;&#9;&#9;&#9;c1.1,0,2.2,0.2,3.4,0.2c1.1,0,2.2,0.1,3.4,0.1c1.1,0,2.3-0.1,3.4-0.1c1.1,0.1,2.2,0.2,3.4,0.2c1.1,0.1,2.2,0,3.4,0.1&#10;&#9;&#9;&#9;c1.1,0.1,2.3,0.2,3.4,0.3c1.1,0.1,2.3,0.1,3.5,0.2c1.1,0.1,2.3,0.3,3.4,0.5c1.1,0.1,2.3,0.1,3.5,0.2c1.1,0.1,2.3,0.3,3.4,0.4&#10;&#9;&#9;&#9;c1.1,0.2,2.3,0.3,3.4,0.5c1.1,0.2,2.2,0.6,3.4,0.8c1.1,0.2,2.3,0.2,3.4,0.4c1.1,0.2,2.3,0.4,3.4,0.7c1.1,0.2,2.3,0.5,3.4,0.7&#10;&#9;&#9;&#9;c1.1,0.3,2.2,0.6,3.3,0.9c1.1,0.3,2.2,0.7,3.3,1.1c1,0.3,2.1,0.6,3.1,0.9c1,0.3,2.1,0.6,3.1,1c1,0.4,2,0.7,3,1.1&#10;&#9;&#9;&#9;c1,0.4,1.9,1,2.9,1.5c1,0.5,2,0.8,2.9,1.3c1.2,0.6,2.4,1.1,3.5,1.8c1.1,0.7,2,1.8,3,2.6c1,0.8,2,1.6,2.9,2.5&#10;&#9;&#9;&#9;c0.8,0.8,1.8,1.4,2.5,2.3c0.7,0.9,1.3,1.8,1.9,2.8c0.6,1,1,2,1.4,3c0.4,1,0.6,2.2,0.8,3.2c0.2,1.1,0.4,2.2,0.5,3.3&#10;&#9;&#9;&#9;c0,1.1,0,2.2-0.2,3.3c-0.1,1.1-0.3,2.2-0.6,3.3c-0.3,1-0.6,2.1-1,3.2c-0.4,0.9-0.9,1.7-1.3,2.6c-0.4,0.9-1,1.7-1.5,2.5&#10;&#9;&#9;&#9;c-0.5,0.8-1,1.7-1.6,2.5c-0.7,1-1.4,1.9-2.1,2.8c-0.7,0.9-1.4,1.8-2.2,2.7c-0.8,0.9-1.7,1.6-2.5,2.5c-0.8,0.8-1.7,1.6-2.5,2.4&#10;&#9;&#9;&#9;c-0.9,0.8-1.5,1.8-2.4,2.5c-0.9,0.8-2,1.3-2.9,2c-0.9,0.7-1.8,1.4-2.7,2.1c-0.9,0.7-1.7,1.6-2.6,2.3c-0.9,0.7-1.9,1.4-2.8,2&#10;&#9;&#9;&#9;c-0.9,0.7-2,1.2-3,1.8c-1,0.6-1.9,1.3-2.9,1.9c-1,0.6-1.9,1.3-2.9,1.9c-1,0.6-2.1,1-3.1,1.6c-1,0.6-1.9,1.2-2.9,1.8&#10;&#9;&#9;&#9;c-1,0.6-1.9,1.3-2.9,1.8c-1,0.6-2,1-3.1,1.6c-1,0.5-1.9,1.3-2.9,1.9c-1,0.5-2.2,0.7-3.3,1.2s-2.1,1-3.1,1.5c-1,0.5-1.9,1.3-3,1.8&#10;&#9;&#9;&#9;c-1,0.5-2.2,0.7-3.2,1.2c-1,0.5-2,1.3-3,1.7c-1,0.5-2.2,0.7-3.3,1.2c-1.1,0.5-2.1,0.9-3.2,1.4c-1.1,0.5-2,1.1-3.1,1.6&#10;&#9;&#9;&#9;c-1.1,0.4-2.3,0.5-3.3,1c-1.1,0.4-2.2,0.8-3.2,1.3c-1.1,0.4-2.1,0.9-3.2,1.3c-1.1,0.4-2.1,1.1-3.1,1.5c-1.1,0.4-2.3,0.6-3.3,1&#10;&#9;&#9;&#9;c-1.1,0.4-2.2,0.7-3.3,1.1c-1.1,0.4-2.1,1.1-3.2,1.5c-1.1,0.4-2.3,0.5-3.4,0.9c-1.1,0.4-2.1,1.1-3.2,1.5c-1.1,0.4-2.2,0.7-3.3,1&#10;&#9;&#9;&#9;c-1.1,0.4-2.3,0.5-3.4,0.8c-1.1,0.4-2.1,1-3.2,1.4s-2.2,0.6-3.4,0.9c-1.1,0.3-2.2,0.8-3.3,1.1c-1.1,0.3-2.3,0.5-3.4,0.9&#10;&#9;&#9;&#9;c-1.1,0.3-2.3,0.6-3.4,0.9c-1.1,0.3-2.2,0.9-3.3,1.2c-1.1,0.3-2.3,0.5-3.4,0.8c-1.1,0.3-2.3,0.5-3.4,0.8c-1.1,0.3-2.2,0.8-3.3,1.1&#10;&#9;&#9;&#9;c-1.1,0.3-2.3,0.4-3.4,0.7c-1.1,0.3-2.3,0.5-3.4,0.8c-1.1,0.3-2.2,0.7-3.3,1c-1.1,0.3-2.3,0.6-3.4,0.8c-1.1,0.3-2.3,0.6-3.4,0.8&#10;&#9;&#9;&#9;c-1.1,0.3-2.2,0.6-3.2,0.9c-1.1,0.3-2.2,0.5-3.3,0.8c-1.1,0.2-2.3,0.1-3.4,0.4c-1.1,0.2-2.2,0.6-3.3,0.8c-1.1,0.2-2.2,0.4-3.3,0.6&#10;&#9;&#9;&#9;c-1.1,0.2-2.2,0.5-3.3,0.7c-1.1,0.2-2.2,0.3-3.3,0.6s-2.2,0.5-3.3,0.7c-1.1,0.2-2.2,0.4-3.3,0.6c-1.1,0.2-2.2,0.6-3.3,0.8&#10;&#9;&#9;&#9;c-1.1,0.2-2.2,0.3-3.3,0.5c-1.1,0.2-2.2,0.6-3.3,0.8c-1.1,0.2-2.2,0.3-3.3,0.4c-1.1,0.2-2.1,0.4-3.2,0.6c-1.1,0.2-2.2,0-3.3,0.2&#10;&#9;&#9;&#9;s-2.1,0.7-3.2,0.8c-1.1,0.2-2.2,0.1-3.3,0.3c-1.1,0.2-2.2,0.1-3.3,0.3c-1.1,0.1-2.1,0.7-3.2,0.8c-1.1,0.1-2.2,0.2-3.2,0.3&#10;&#9;&#9;&#9;c-1.1,0.1-2.2,0-3.3,0.2c-1.1,0.1-2.1,0.4-3.2,0.5c-1.1,0.1-2.2,0.4-3.4,0.5c-1.1,0.1-2.3,0-3.4,0.1c-1.1,0.1-2.3,0.2-3.4,0.3&#10;&#9;&#9;&#9;c-1.1,0.1-2.2,0.3-3.4,0.4c-1.1,0.1-2.3,0.1-3.4,0.2c-1.1,0.1-2.3,0.2-3.4,0.3c-1.1,0.1-2.3,0.1-3.4,0.1c-1.1,0.1-2.2,0.4-3.4,0.5&#10;&#9;&#9;&#9;c-1.1,0.1-2.3-0.1-3.4,0c-1.1,0.1-2.3,0.1-3.4,0.2c-1.1,0.1-2.2,0.4-3.4,0.5c-1.1,0.1-2.3-0.1-3.4,0c-0.9,0.1-1.8,0.3-2.7,0.3&#10;&#9;&#9;&#9;c-0.9,0-1.8-0.3-2.8-0.3C394.1,560.5,394.1,560.6,394.1,560.7z M394.3,557.5c1.2,0,2.4-0.1,3.6-0.1c1.2,0,2.4,0,3.6-0.1&#10;&#9;&#9;&#9;c1.2,0,2.4,0.2,3.6,0.1c1.2-0.1,2.4-0.2,3.6-0.2c1.2-0.1,2.4-0.3,3.6-0.4c1.2-0.1,2.4,0,3.6-0.1c1.2-0.1,2.4-0.2,3.6-0.2&#10;&#9;&#9;&#9;c1.2-0.1,2.4-0.2,3.6-0.3c1.2-0.1,2.4-0.5,3.6-0.6c1.2-0.1,2.4-0.3,3.6-0.4c1.2-0.1,2.4-0.3,3.6-0.5c1.2-0.1,2.4,0,3.6-0.2&#10;&#9;&#9;&#9;s2.4-0.5,3.6-0.7c1.2-0.1,2.4-0.3,3.6-0.4c1.2-0.1,2.4,0.1,3.6,0c1.2-0.1,2.3-0.3,3.5-0.5c1.2-0.1,2.3-0.6,3.5-0.7&#10;&#9;&#9;&#9;c1.2-0.2,2.4,0,3.5-0.2c1.2-0.2,2.3-0.4,3.5-0.6c1.2-0.2,2.3-0.6,3.5-0.8s2.4-0.1,3.5-0.3c1.2-0.2,2.3-0.3,3.5-0.5&#10;&#9;&#9;&#9;c1.2-0.2,2.3-0.5,3.5-0.7c1.2-0.2,2.3-0.5,3.5-0.7c1.2-0.2,2.3-0.3,3.5-0.6c1.2-0.2,2.3-0.5,3.5-0.7c1.2-0.2,2.3-0.4,3.5-0.6&#10;&#9;&#9;&#9;c1.2-0.2,2.3-0.5,3.5-0.7c1.2-0.2,2.3-0.5,3.5-0.8c1.2-0.2,2.4-0.2,3.5-0.5c1.2-0.3,2.3-0.5,3.5-0.8c1.2-0.3,2.3-0.7,3.4-1&#10;&#9;&#9;&#9;c1.2-0.3,2.3-0.4,3.5-0.7c1.1-0.3,2.2-0.9,3.4-1.2c1.1-0.3,2.3-0.1,3.4-0.4c1.1-0.3,2.1-0.8,3.2-1c1.1-0.3,2.2-0.4,3.3-0.7&#10;&#9;&#9;&#9;c1.1-0.3,2.1-0.7,3.2-1c1.1-0.3,2.2-0.6,3.3-0.9c1.1-0.3,2.1-0.8,3.2-1.1c1.1-0.3,2.3-0.3,3.3-0.6c1.1-0.3,2.2-0.6,3.3-0.9&#10;&#9;&#9;&#9;c1.1-0.3,2.1-0.9,3.2-1.2s2.1-0.7,3.2-1.1c1.1-0.3,2.2-0.7,3.2-1c1.1-0.3,2.3-0.3,3.3-0.7s2.1-0.7,3.2-1c1.1-0.3,2.1-0.8,3.2-1.2&#10;&#9;&#9;&#9;c1.1-0.4,2.2-0.5,3.3-0.9c1.1-0.4,2-1,3.1-1.4c1.1-0.4,2.2-0.5,3.3-0.9c1.1-0.4,2.1-0.9,3.1-1.3c1.1-0.4,2.1-0.8,3.2-1.2&#10;&#9;&#9;&#9;c1.1-0.4,2.2-0.6,3.2-1c1.1-0.4,2-1,3.1-1.4c1.1-0.4,2.2-0.5,3.3-0.9c1.1-0.4,2.2-0.9,3.2-1.3c1.1-0.4,2-1.2,3.1-1.6&#10;&#9;&#9;&#9;c1.1-0.4,2.3-0.6,3.3-1.1c1.1-0.5,2.2-0.9,3.2-1.3c1.1-0.5,2.1-0.9,3.2-1.4c1.1-0.5,2.1-0.9,3.2-1.4c1.1-0.5,1.9-1.3,3-1.8&#10;&#9;&#9;&#9;c1.1-0.5,2.1-0.9,3.2-1.4c1-0.5,2-1.1,3.1-1.6c1-0.5,2.3-0.7,3.3-1.2c1-0.5,2-1.3,3-1.8c1-0.5,2.2-0.9,3.2-1.5&#10;&#9;&#9;&#9;c1-0.6,2.1-1.1,3.1-1.7c1-0.6,2.1-1.1,3.1-1.7c1-0.6,1.9-1.4,2.9-2c1-0.6,2.1-1.2,3.1-1.8c1-0.6,2-1.2,3-1.9&#10;&#9;&#9;&#9;c1-0.7,1.9-1.5,2.9-2.2c1-0.7,2-1.4,2.9-2.1c1-0.7,1.9-1.4,2.9-2.1c0.9-0.7,1.8-1.5,2.7-2.3c0.9-0.8,2-1.3,2.9-2.1&#10;&#9;&#9;&#9;c0.9-0.8,1.7-1.7,2.5-2.5c0.9-0.9,1.8-1.8,2.6-2.7c0.9-0.9,1.8-1.8,2.6-2.7c0.8-0.9,1.5-2,2.3-3c0.8-1,1.5-2,2.1-3.1&#10;&#9;&#9;&#9;c0.6-0.9,1.4-1.6,1.9-2.6c0.5-0.9,0.7-2,1.1-3c0.4-1,0.6-2,0.9-3.1c0.3-1.1,0.4-2.1,0.5-3.2c0.1-1.1,0.2-2.2,0.1-3.2&#10;&#9;&#9;&#9;c-0.1-1.1-0.5-2.1-0.9-3.1c-0.3-1-0.7-2-1.2-3c-0.5-0.9-1.2-1.8-1.8-2.6c-0.6-0.8-1.2-1.7-2-2.5c-0.7-0.7-1.5-1.5-2.3-2.2&#10;&#9;&#9;&#9;c-0.9-0.7-2.1-1.1-3.1-1.8c-1-0.7-1.8-1.6-2.9-2.2c-1-0.6-2.2-0.9-3.3-1.4c-1.1-0.5-2.1-1.2-3.2-1.7c-1.1-0.5-2.3-0.5-3.5-0.9&#10;&#9;&#9;&#9;c-1.1-0.4-2.2-1.1-3.3-1.4c-1.1-0.4-2.3-0.5-3.5-0.9c-1.1-0.3-2.2-0.9-3.4-1.2c-1.2-0.3-2.4-0.3-3.5-0.6c-1.2-0.3-2.3-0.5-3.5-0.7&#10;&#9;&#9;&#9;c-1.2-0.2-2.3-0.4-3.5-0.6c-1.2-0.2-2.3-0.6-3.5-0.7c-1.2-0.2-2.4-0.2-3.6-0.3c-1.2-0.2-2.4-0.3-3.6-0.4c-1.2-0.1-2.4-0.3-3.6-0.4&#10;&#9;&#9;&#9;c-1.2-0.1-2.3-0.6-3.5-0.7c-1.2-0.1-2.4,0-3.6-0.1c-1.2-0.1-2.4-0.3-3.6-0.4c-1.2-0.1-2.4-0.1-3.6-0.1c-1.2-0.1-2.4,0-3.6,0&#10;&#9;&#9;&#9;c-1.2-0.1-2.4-0.1-3.6-0.2c-1.2,0-2.4-0.5-3.6-0.5c-1.2,0-2.4,0-3.6,0c-1.1,0-2.2,0-3.2,0.2c-1,0.2-1.9,0.7-2.9,1.3&#10;&#9;&#9;&#9;c-0.8,0.5-1.7,1-2.5,1.9c-0.7,0.9-1.6,1.5-2.5,1.7c-1,0.3-2.1,0.3-3.1,0.1c-0.9-0.3-1.7-1-2.5-1.7c-0.4-0.3-0.8-0.6-1.1-0.9&#10;&#9;&#9;&#9;c-1.1-1.2-2.5-2-4.2-1.9c-0.7,0-1.5,0.1-2.2,0.2c-1.2,0.1-2.4,0.1-3.6,0.2c-1.2,0.1-2.4,0.2-3.6,0.3c-1.2,0.1-2.4,0.3-3.6,0.4&#10;&#9;&#9;&#9;c-1.2,0.1-2.4,0-3.6,0.1c-1.2,0.1-2.4,0-3.6,0.1c-1.2,0.1-2.4,0.2-3.6,0.3c-1.2,0.1-2.4,0.5-3.6,0.6c-1.2,0.1-2.4,0.2-3.6,0.3&#10;&#9;&#9;&#9;c-1.2,0.1-2.4,0.4-3.6,0.5c-1.1,0.1-2.2,0.2-3.3,0.3c-1.1,0.1-2.2,0.3-3.3,0.5c-1.1,0.1-2.2,0.1-3.3,0.3c-1.1,0.1-2.2,0.4-3.3,0.6&#10;&#9;&#9;&#9;c-1.1,0.1-2.2,0.3-3.3,0.4c-1.1,0.2-2.2,0.3-3.3,0.5s-2.2,0.1-3.3,0.3c-1.1,0.2-2.2,0.5-3.3,0.7c-1.1,0.2-2.2,0.4-3.3,0.6&#10;&#9;&#9;&#9;c-1.1,0.2-2.2,0.4-3.3,0.6c-1.1,0.2-2.2,0.3-3.3,0.5c-1.1,0.2-2.2,0.3-3.3,0.5c-1.1,0.2-2.2,0.4-3.3,0.6c-1.1,0.2-2.2,0.5-3.3,0.7&#10;&#9;&#9;&#9;c-1.1,0.2-2.2,0.5-3.3,0.7s-2.2,0.2-3.3,0.5c-1.1,0.2-2.2,0.6-3.3,0.8c-1.1,0.2-2.2,0.6-3.3,0.8c-1.1,0.2-2.3,0.1-3.4,0.3&#10;&#9;&#9;&#9;c-1.1,0.2-2.2,0.5-3.3,0.8c-1.1,0.2-2.1,0.8-3.2,1c-1.1,0.3-2.2,0.5-3.3,0.7c-1.1,0.3-2.2,0.5-3.4,0.7c-1.1,0.3-2.3,0.4-3.4,0.7&#10;&#9;&#9;&#9;c-1.1,0.3-2.2,0.6-3.3,0.9c-1.1,0.3-2.2,0.5-3.3,0.8c-1.1,0.3-2.2,0.7-3.3,1c-1.1,0.3-2.2,0.6-3.3,0.9c-1.1,0.3-2.3,0.4-3.4,0.7&#10;&#9;&#9;&#9;c-1.1,0.3-2.2,0.6-3.3,0.9c-1.1,0.3-2.2,0.7-3.3,1c-1.1,0.3-2.2,0.6-3.3,1c-1.1,0.3-2.2,0.7-3.3,1.1c-1.1,0.3-2.2,0.6-3.3,0.9&#10;&#9;&#9;&#9;c-1.1,0.3-2.2,0.7-3.3,1c-1.1,0.3-2.1,1-3.2,1.4c-1.1,0.4-2.3,0.4-3.4,0.8c-1.1,0.4-2.2,0.7-3.3,1.1c-1.1,0.4-2.1,1-3.2,1.4&#10;&#9;&#9;&#9;c-1.1,0.4-2.2,0.8-3.2,1.2c-1.1,0.4-2.2,0.6-3.3,1c-1.1,0.4-2.1,0.8-3.2,1.2c-1.1,0.4-2.1,0.9-3.2,1.3c-1.1,0.4-2.2,0.6-3.3,1&#10;&#9;&#9;&#9;c-1.1,0.4-2.1,0.9-3.2,1.3c-1,0.4-2,1-3.1,1.4c-1,0.4-2.1,0.8-3.1,1.2c-1,0.4-2,1.1-3,1.6c-1,0.4-2.2,0.5-3.3,0.9&#10;&#9;&#9;&#9;c-1,0.5-2.1,0.9-3.1,1.4c-1,0.5-1.9,1.2-2.9,1.7c-1,0.5-2.2,0.7-3.2,1.2c-1,0.5-1.9,1.3-2.9,1.8c-1,0.5-2.1,0.8-3.1,1.3&#10;&#9;&#9;&#9;c-1,0.5-2,1-3,1.6c-1,0.5-1.9,1.3-2.9,1.8c-1,0.5-2.2,0.7-3.1,1.3c-1,0.5-2,1.1-3,1.6c-1,0.6-1.9,1.2-2.9,1.7&#10;&#9;&#9;&#9;c-1,0.6-1.8,1.4-2.8,2c-1,0.6-2.2,1-3.2,1.7c-1,0.6-2.1,1.2-3.1,1.8c-1,0.7-1.8,1.6-2.8,2.3c-1,0.7-2.1,1.2-3.1,1.9&#10;&#9;&#9;&#9;c-1,0.7-1.7,1.7-2.6,2.4c-0.9,0.7-1.9,1.4-2.9,2.2c-0.9,0.8-2,1.3-2.9,2.1c-0.9,0.8-1.5,1.8-2.4,2.7c-0.8,0.8-1.7,1.4-2.4,2.2&#10;&#9;&#9;&#9;c-0.8,0.8-1.5,1.6-2.2,2.5c-0.7,0.8-1.5,1.6-2.2,2.4c-0.7,0.9-1.4,1.7-2,2.6c-0.6,0.8-0.9,1.8-1.4,2.7c-0.5,0.9-1.1,1.7-1.5,2.6&#10;&#9;&#9;&#9;c-0.4,0.9-0.9,1.8-1.2,2.8c-0.3,1.1-0.4,2.2-0.5,3.2c-0.2,1.1-0.5,2.1-0.5,3.2c0,1.1,0.1,2.2,0.3,3.2c0.2,1.1,0.7,2,1.1,3&#10;&#9;&#9;&#9;c0.4,1,0.9,1.9,1.6,2.8c0.6,0.9,1.2,1.7,2,2.6c0.7,0.8,1.6,1.5,2.4,2.2c0.8,0.7,1.7,1.4,2.6,2c0.9,0.6,1.6,1.6,2.5,2.1&#10;&#9;&#9;&#9;c1,0.6,2,1.1,3.1,1.7c1,0.5,2,1.1,3.1,1.6c1.1,0.5,2.2,0.9,3.2,1.3c1.1,0.4,2.1,0.9,3.2,1.3c1,0.4,2.1,0.7,3.2,1&#10;&#9;&#9;&#9;c1.1,0.3,2.1,0.7,3.2,1c1.1,0.3,2.2,0.3,3.3,0.6c1.1,0.3,2.1,0.7,3.2,0.9c1.1,0.2,2.2,0.2,3.3,0.4c1.1,0.2,2.1,0.5,3.2,0.7&#10;&#9;&#9;&#9;c1.1,0.2,2.2,0.3,3.3,0.5c1.1,0.2,2.1,0.7,3.2,0.8c1.1,0.2,2.2,0,3.3,0.1c1.1,0.1,2.2,0.5,3.3,0.6c1.1,0.1,2.2,0.4,3.3,0.6&#10;&#9;&#9;&#9;c1.1,0.1,2.2-0.2,3.3-0.1c1.3,0.1,2.4,0.1,3.6-0.2c1.1-0.3,2.3-0.6,3.3-1.4c1-0.8,2-1.2,3-1.2c1,0,2.1,0.4,3,1.3&#10;&#9;&#9;&#9;c1.1,1.1,2.2,1.9,3.5,2.3c1.3,0.4,2.7,0.5,4.2,0.5c1.2,0,2.5-0.1,3.7-0.1c1.2,0,2.4,0.1,3.7,0.1c1.2,0,2.4,0,3.7,0&#10;&#9;&#9;&#9;C391.8,557.6,393,557.5,394.3,557.5z" style="fill: rgb(204, 204, 204); opacity: 1;"/>
	</g><g transform="matrix(1, 0, 0, 1, -100.44575500488281, -83.44724273681642)">
		<path class="st4" d="M256,405.2c0,1-0.2,2-0.7,2.8c-0.5,0.9-1.1,1.6-2,2.1c-0.8,0.5-1.7,0.8-2.7,0.9c-1,0-1.9-0.2-2.8-0.7&#10;&#9;&#9;&#9;c-0.8-0.5-1.6-1.2-2.1-2c-0.5-0.8-0.8-1.8-0.9-2.8c0-1,0.2-2,0.7-2.8c0.5-0.8,1.2-1.6,2-2.1c0.8-0.5,1.8-0.8,2.8-0.9&#10;&#9;&#9;&#9;c1,0,2,0.2,2.8,0.6c0.9,0.5,1.6,1.2,2.1,2C255.7,403.2,256,404.1,256,405.2z" style="fill: rgb(204, 204, 204); opacity: 1;"/>
	</g><g transform="matrix(1, 0, 0, 1, -100.44575500488281, -83.44724273681642)">
		<path class="st0" d="M400.8,402.3c-1,0-2-0.2-2.8-0.6c-0.9-0.5-1.6-1.1-2.1-2c-0.5-0.8-0.8-1.7-0.8-2.8c0-1,0.2-2,0.7-2.8&#10;&#9;&#9;&#9;c0.5-0.9,1.2-1.6,2-2.1c0.8-0.5,1.8-0.8,2.8-0.8c1,0,2,0.2,2.8,0.7c0.9,0.5,1.6,1.2,2.1,2c0.5,0.8,0.8,1.8,0.8,2.8&#10;&#9;&#9;&#9;c0,1-0.2,2-0.7,2.8c-0.5,0.8-1.2,1.6-2,2.1C402.8,402,401.8,402.3,400.8,402.3z M402.8,396.8c0-1.2-0.8-2.1-2-2.1&#10;&#9;&#9;&#9;c-1.1,0-2.2,0.8-2.3,1.9c-0.1,1.2,1,2.4,2.2,2.3C401.9,398.9,402.8,398,402.8,396.8z" style="fill: rgb(204, 204, 204); opacity: 1;"/>
	</g><g transform="matrix(1, 0, 0, 1, -100.44575500488281, -83.44724273681642)">
		<path class="st4" d="M402,618.8c0,1-0.2,2-0.7,2.8c-0.5,0.9-1.2,1.6-2,2.1c-0.8,0.5-1.8,0.8-2.8,0.8c-1,0-2-0.2-2.8-0.7&#10;&#9;&#9;&#9;c-0.9-0.5-1.6-1.2-2.1-2c-0.5-0.8-0.8-1.8-0.8-2.8c0-1,0.2-2,0.7-2.8c0.5-0.9,1.1-1.6,2-2.1c0.8-0.5,1.8-0.8,2.8-0.8&#10;&#9;&#9;&#9;c1.1,0,2,0.3,2.8,0.7c0.9,0.5,1.6,1.2,2.1,2C401.8,616.8,402,617.8,402,618.8z M398.5,619c0.1-1.2-0.8-2.1-1.9-2.2&#10;&#9;&#9;&#9;c-1.1-0.1-2.2,0.8-2.3,1.8c-0.2,1.2,0.9,2.4,2.1,2.4C397.6,621.1,398.5,620.2,398.5,619z" style="fill: rgb(204, 204, 204); opacity: 1;"/>
	</g><g transform="matrix(1, 0, 0, 1, -100.44575500488281, -83.44724273681642)">
		<path class="st4" d="M327.9,440.9c0,1.4-0.5,2.6-1.4,3.5c-0.9,0.9-2.1,1.4-3.5,1.3c-1.3,0-2.5-0.5-3.3-1.3c-0.8-0.8-1.4-2-1.4-3.3&#10;&#9;&#9;&#9;c0-1.3,0.5-2.6,1.4-3.5c0.9-0.9,2.1-1.5,3.4-1.5c1.3,0,2.4,0.6,3.3,1.4C327.3,438.4,327.8,439.6,327.9,440.9z" style="fill: rgb(204, 204, 204); opacity: 1;"/>
	</g><g transform="matrix(1, 0, 0, 1, -100.44575500488281, -83.44724273681642)">
		<path class="st0" d="M515.4,577c-1.3,0-2.5-0.6-3.4-1.5c-0.8-0.9-1.3-2.1-1.3-3.5c0-1.3,0.6-2.4,1.4-3.2c0.8-0.8,2-1.3,3.3-1.3&#10;&#9;&#9;&#9;c1.4,0,2.6,0.5,3.5,1.3c0.9,0.9,1.5,2.1,1.5,3.4c0,1.3-0.6,2.5-1.5,3.4C517.9,576.5,516.7,577.1,515.4,577z" style="fill: rgb(204, 204, 204); opacity: 1;"/>
	</g><g transform="matrix(1, 0, 0, 1, -100.44575500488281, -83.44724273681642)">
		<path class="st4" d="M602.1,618.7c0,1.3-0.4,2.5-1.2,3.4c-0.8,0.9-1.9,1.4-3.2,1.5c-1.4,0.1-2.6-0.4-3.5-1.2&#10;&#9;&#9;&#9;c-0.9-0.8-1.5-2-1.6-3.4c-0.1-1.3,0.5-2.5,1.4-3.5c0.9-0.9,2.1-1.5,3.4-1.5c1.3,0,2.4,0.5,3.3,1.4&#10;&#9;&#9;&#9;C601.5,616.3,602,617.4,602.1,618.7z M598.1,618.7c-0.2-0.3-0.4-0.6-0.8-0.5c-0.4,0.1-0.6,0.3-0.6,0.7c0,0.5,0.5,0.9,1,0.7&#10;&#9;&#9;&#9;C597.9,619.4,598.2,619.2,598.1,618.7z" style="fill: rgb(204, 204, 204); opacity: 1;"/>
	</g><g transform="matrix(1, 0, 0, 1, -100.44575500488281, -83.44724273681642)">
		<path class="st4" d="M420,623.6c-1.4,0-2.6-0.5-3.5-1.3c-0.9-0.9-1.4-2.1-1.4-3.4c0-1.3,0.5-2.5,1.4-3.4c0.9-0.9,2.1-1.5,3.4-1.4&#10;&#9;&#9;&#9;c1.2,0,2.4,0.6,3.3,1.4c0.9,0.8,1.4,2,1.5,3.2c0.1,1.3-0.4,2.6-1.3,3.5C422.5,623,421.3,623.6,420,623.6z M420.8,618.8&#10;&#9;&#9;&#9;c-0.1-0.6-0.8-1-1.3-0.8c-0.5,0.2-0.7,0.6-0.6,1.1c0.1,0.6,0.6,0.7,1.1,0.6C420.6,619.7,420.8,619.4,420.8,618.8z" style="fill: rgb(204, 204, 204); opacity: 1;"/>
	</g><g transform="matrix(1, 0, 0, 1, -100.44575500488281, -83.44724273681642)">
		<path class="st0" d="M263.5,577.8c-1.5,0-2.8-1.2-2.9-2.7c-0.1-1.4,1.3-2.8,2.7-2.9c1.5-0.1,2.8,1.2,2.8,2.7&#10;&#9;&#9;&#9;C266.2,576.5,265,577.8,263.5,577.8z" style="fill: rgb(204, 204, 204); opacity: 1;"/>
	</g><g transform="matrix(1, 0, 0, 1, -100.44575500488281, -83.44724273681642)">
		<path class="st0" d="M283.7,467.1c-1.6,0.1-2.9-1-2.9-2.6c-0.1-1.6,1.1-2.8,2.7-2.9c1.4,0,2.6,1,2.7,2.4&#10;&#9;&#9;&#9;C286.3,465.7,285.3,467,283.7,467.1z" style="fill: rgb(204, 204, 204); opacity: 1;"/>
	</g><g transform="matrix(1, 0, 0, 1, -100.44575500488281, -83.44724273681642)">
		<path class="st0" d="M663.8,626.5c0.1,1.6-1.1,2.8-2.7,2.8c-1.6,0-2.8-1.2-2.7-2.8c0-1.4,1.1-2.5,2.5-2.6&#10;&#9;&#9;&#9;C662.5,623.8,663.8,624.9,663.8,626.5z" style="fill: rgb(204, 204, 204); opacity: 1;"/>
	</g><g transform="matrix(1, 0, 0, 1, -100.44575500488281, -83.44724273681642)">
		<path class="st4" d="M342,609.1c0.1,1.5-1.1,2.9-2.6,2.9c-1.5,0-2.8-1.2-2.8-2.7c-0.1-1.5,1.1-2.8,2.6-2.9&#10;&#9;&#9;&#9;C340.7,606.4,342,607.6,342,609.1z" style="fill: rgb(204, 204, 204); opacity: 1;"/>
	</g><g transform="matrix(1, 0, 0, 1, -100.44575500488281, -83.44724273681642)">
		<path class="st4" d="M418.5,599.1c1.5,0,2.7,1.3,2.7,2.8c0,1.5-1.2,2.7-2.8,2.6c-1.5,0-2.8-1.3-2.7-2.8&#10;&#9;&#9;&#9;C415.7,600.3,417,599,418.5,599.1z" style="fill: rgb(204, 204, 204); opacity: 1;"/>
	</g><g transform="matrix(1, 0, 0, 1, -100.44575500488281, -83.44724273681642)">
		<path class="st4" d="M600.8,582c1.6,0,2.7,1.3,2.6,2.9c-0.1,1.4-1.2,2.5-2.6,2.6c-1.6,0.1-2.8-1.1-2.9-2.7&#10;&#9;&#9;&#9;C598,583.2,599.3,582,600.8,582z" style="fill: rgb(204, 204, 204); opacity: 1;"/>
	</g><g transform="matrix(1, 0, 0, 1, -100.44575500488281, -83.44724273681642)">
		<path class="st4" d="M537.2,448.5c1.1,0,2.2-0.1,3.4-0.1c1.1,0,2.2,0.1,3.4,0.1c1.1,0,2.2-0.1,3.4-0.1c1.1,0,2.2,0.2,3.4,0.2&#10;&#9;&#9;&#9;c1.1,0.1,2.2,0.1,3.4,0.2c1.1,0.1,2.2,0.3,3.3,0.4c1.1,0.1,2.2,0.3,3.4,0.5c1.1,0.2,2.3,0.2,3.4,0.5c1.1,0.2,2.2,0.5,3.3,0.8&#10;&#9;&#9;&#9;c1.1,0.3,2.1,0.8,3.2,1.2c1,0.4,1.9,0.8,2.8,1.2c0.9,0.5,1.8,1,2.6,1.7c1,0.9,1.8,1.8,2.3,2.7c0.5,1.1,0.6,2.3,0.5,3.5&#10;&#9;&#9;&#9;c-0.1,1.1-0.2,2.2-0.8,3.4c-0.7,1.6-1.9,2.9-3.1,4.1c-1,1-2.1,1.9-3.2,2.8c-1.1,0.9-2.2,1.8-3.4,2.6c-0.9,0.6-1.8,1.1-2.8,1.7&#10;&#9;&#9;&#9;c-0.9,0.6-1.9,1.1-2.8,1.6c-0.9,0.5-1.8,1.2-2.8,1.7c-1,0.5-1.9,1-2.9,1.4c-1,0.5-2,0.8-3,1.3c-1,0.5-1.9,1-2.9,1.5&#10;&#9;&#9;&#9;c-1,0.4-2,0.9-3,1.3c-1.1,0.4-2.1,0.9-3.2,1.3c-1.1,0.4-2.1,0.9-3.2,1.3c-1.1,0.4-2.2,0.8-3.2,1.2c-1.1,0.4-2.2,0.7-3.3,1&#10;&#9;&#9;&#9;c-1.1,0.4-2.1,0.8-3.2,1.2c-1.1,0.4-2.2,0.8-3.2,1.2c-1.1,0.4-2.2,0.7-3.3,1c-1.1,0.3-2.2,0.6-3.3,1c-1.1,0.3-2.2,0.6-3.3,0.9&#10;&#9;&#9;&#9;c-1.1,0.3-2.2,0.7-3.3,1c-1.1,0.3-2.2,0.7-3.3,1c-1.1,0.3-2.2,0.6-3.3,0.9c-1.1,0.3-2.2,0.6-3.3,0.9c-1.1,0.3-2.2,0.5-3.3,0.8&#10;&#9;&#9;&#9;c-1.1,0.3-2.2,0.6-3.3,0.8c-1.1,0.3-2.2,0.6-3.3,0.9c-1.1,0.3-2.2,0.4-3.3,0.6c-1.1,0.2-2.2,0.4-3.3,0.6c-1.1,0.2-2.2,0.6-3.3,0.8&#10;&#9;&#9;&#9;c-1.1,0.2-2.2,0.4-3.3,0.6c-1.1,0.2-2.2,0.5-3.3,0.8c-1.1,0.2-2.2,0.5-3.3,0.7c-1.2,0.2-2.2,0.5-3,1.1c-0.8,0.6-1.5,1.4-1.8,2.6&#10;&#9;&#9;&#9;c-0.1,0.5-0.5,0.9-0.7,1.3c-0.6,1.1-1.2,2.1-2.1,2.9c-0.9,0.8-2,1.2-3.2,1.6c-1.1,0.4-2.3,0.6-3.5,0.5c-1.2-0.1-2.3-0.2-3.5-0.8&#10;&#9;&#9;&#9;c-1-0.5-2-1.2-2.9-2.1c-0.5-0.5-1-1.1-1.4-1.7c-1.1-1.4-2.5-1.9-4.2-1.7c-1,0.1-2.1,0.3-3.1,0.4c-1,0.1-2.1,0-3.1,0.2&#10;&#9;&#9;&#9;c-1.1,0.1-2.3,0.2-3.4,0.4c-1.1,0.1-2.3,0.4-3.4,0.4c-1.1,0.1-2.3,0.1-3.4,0.2c-1.1,0.1-2.3,0.1-3.4,0.2c-1.1,0.1-2.3,0.2-3.4,0.2&#10;&#9;&#9;&#9;c-1.1,0-2.3,0.1-3.4,0.1c-1.1,0-2.3,0-3.4,0c-1.1,0-2.3-0.2-3.4-0.2c-1.1,0-2.3,0.1-3.4,0.1c-1.1,0-2.3,0-3.4,0&#10;&#9;&#9;&#9;c-1.2,0-2.5-0.1-3.7-0.2c-1.2-0.1-2.5-0.4-3.7-0.5c-1.2-0.2-2.5-0.3-3.7-0.5c-1.2-0.2-2.4-0.5-3.7-0.8c-1.2-0.3-2.4-0.5-3.6-0.9&#10;&#9;&#9;&#9;c-1.1-0.3-2.1-0.8-3.1-1.2c-1-0.5-2-1-2.9-1.7c-0.9-0.7-1.7-1.4-2.3-2.1c-0.7-0.9-1-1.9-1.2-2.9c-0.2-1-0.2-2,0-3.1&#10;&#9;&#9;&#9;c0.2-0.9,0.7-1.9,1.2-2.9c0.6-1.1,1.4-2,2.2-2.9c0.8-0.9,1.7-1.7,2.7-2.5c0.8-0.7,1.7-1.4,2.6-2.1c0.9-0.6,1.9-1.2,2.8-1.8&#10;&#9;&#9;&#9;c0.9-0.6,1.8-1.2,2.8-1.8c0.9-0.6,1.9-1.2,2.8-1.7c1-0.5,2-1,2.9-1.5c1-0.5,2-0.8,3-1.3c1-0.5,2-1,3-1.4c1-0.5,2-0.9,3-1.3&#10;&#9;&#9;&#9;c1-0.4,2-0.9,3-1.4c1-0.4,2-0.9,3-1.3c1-0.4,2-0.8,3.1-1.2c1-0.4,2.1-0.8,3.1-1.1c1-0.4,2.1-0.7,3.1-1c1.1-0.4,2.1-0.7,3.2-1.1&#10;&#9;&#9;&#9;c1.1-0.4,2.1-0.8,3.2-1.1c1.1-0.3,2.1-0.7,3.2-1.1c1.1-0.3,2.2-0.5,3.3-0.9c1.1-0.3,2.1-0.8,3.2-1.1c1.1-0.3,2.2-0.6,3.3-0.9&#10;&#9;&#9;&#9;c1.1-0.3,2.2-0.5,3.3-0.8c1.1-0.3,2.1-0.7,3.2-1c1.1-0.3,2.2-0.5,3.3-0.8c1.1-0.3,2.2-0.6,3.3-0.8c1.1-0.3,2.2-0.5,3.3-0.8&#10;&#9;&#9;&#9;c1.1-0.3,2.2-0.6,3.3-0.9c1.1-0.3,2.2-0.5,3.3-0.8c1.1-0.2,2.2-0.4,3.3-0.7c1.1-0.2,2.2-0.4,3.3-0.7c1.1-0.2,2.2-0.4,3.4-0.6&#10;&#9;&#9;&#9;c1.1-0.2,2.2-0.6,3.3-0.8c1.1-0.2,2.2-0.4,3.4-0.6c1.1-0.2,2.3-0.3,3.4-0.5c1.1-0.2,2.2-0.5,3.3-0.7c1.1-0.2,2.3-0.3,3.4-0.4&#10;&#9;&#9;&#9;s2.2-0.4,3.4-0.6c1.1-0.2,2.3-0.2,3.4-0.4c1.1-0.2,2.2-0.5,3.4-0.6c1.1-0.1,2.3-0.3,3.4-0.4c1.2-0.1,2.4-0.2,3.6-0.3&#10;&#9;&#9;&#9;c1.2-0.1,2.4-0.4,3.6-0.5c1.2-0.1,2.4-0.1,3.6-0.3s2.4-0.4,3.6-0.5s2.4-0.1,3.6-0.2c1.2-0.1,2.4-0.1,3.6-0.2&#10;&#9;&#9;&#9;c1.2-0.1,2.4-0.1,3.6-0.2C534.8,448.7,536,448.6,537.2,448.5z M541.9,451.7c-1.2,0-2.4,0.1-3.5,0.1c-1.2,0-2.4,0-3.5,0&#10;&#9;&#9;&#9;c-1.2,0.1-2.4,0.2-3.5,0.3c-1.2,0.1-2.4,0.1-3.5,0.1c-1.2,0.1-2.4,0.2-3.5,0.3c-1.2,0.1-2.4,0.1-3.5,0.2c-1.2,0.1-2.4,0.2-3.5,0.3&#10;&#9;&#9;&#9;c-1.2,0.1-2.3,0.3-3.5,0.5c-1.2,0.1-2.3,0.3-3.5,0.4c-1.2,0.1-2.3,0.2-3.5,0.3c-1.2,0.1-2.3,0.3-3.5,0.5c-1.2,0.2-2.3,0.4-3.4,0.6&#10;&#9;&#9;&#9;c-1.1,0.2-2.3,0.4-3.4,0.6c-1.1,0.2-2.3,0.2-3.5,0.3c-1.1,0.2-2.3,0.6-3.4,0.8c-1.1,0.2-2.3,0.3-3.4,0.5c-1.1,0.2-2.3,0.3-3.4,0.6&#10;&#9;&#9;&#9;c-1.1,0.2-2.3,0.5-3.4,0.7c-1.1,0.2-2.3,0.4-3.4,0.6c-1.1,0.2-2.2,0.4-3.3,0.7c-1.1,0.2-2.2,0.7-3.3,0.9c-1.1,0.2-2.2,0.5-3.3,0.7&#10;&#9;&#9;&#9;c-1.1,0.3-2.2,0.4-3.3,0.7c-1.1,0.3-2.2,0.7-3.3,0.9c-1.1,0.3-2.2,0.6-3.3,0.9c-1.1,0.3-2.2,0.5-3.3,0.8c-1.1,0.3-2.2,0.6-3.3,0.9&#10;&#9;&#9;&#9;c-1.1,0.3-2.2,0.6-3.3,0.9s-2.2,0.5-3.3,0.8c-1.1,0.3-2.1,0.7-3.2,1c-1.1,0.3-2.1,0.7-3.2,1.1c-1.1,0.3-2.2,0.7-3.2,1&#10;&#9;&#9;&#9;c-1.1,0.3-2.2,0.7-3.2,1c-1.1,0.4-2.2,0.7-3.2,1c-1.1,0.4-2.1,0.8-3.2,1.2c-1.1,0.4-2.1,0.8-3.2,1.2c-1,0.4-2,0.7-3.1,1.1&#10;&#9;&#9;&#9;c-1,0.4-2,0.8-3,1.2c-1,0.4-2,0.8-3,1.2c-1,0.4-2,0.9-3,1.3c-1,0.5-1.9,1-2.9,1.5c-1,0.5-2,0.9-3,1.4c-1,0.5-2,0.9-2.9,1.5&#10;&#9;&#9;&#9;c-0.9,0.5-1.8,1.1-2.8,1.7c-1.1,0.6-2.1,1.3-3.1,1.9c-1,0.7-1.9,1.5-2.9,2.3c-1,0.8-1.8,1.6-2.7,2.4c-1.1,1-2,2.1-2.7,3.4&#10;&#9;&#9;&#9;c-0.7,1.3-1,2.4-0.7,3.5c0.2,1.1,0.9,2.1,2.1,3c1,0.7,2.1,1.2,3.3,1.7c1.6,0.6,3.2,1.3,4.8,1.7c1,0.2,2.1,0.4,3.1,0.6&#10;&#9;&#9;&#9;c1,0.2,2.1,0.3,3.2,0.4c1,0.1,2.1,0.3,3.2,0.4c1.1,0.1,2.1,0.2,3.2,0.3c1.1,0.1,2.1,0.1,3.2,0.2c1.1,0,2.1,0,3.2,0&#10;&#9;&#9;&#9;c1.1,0,2.2,0.2,3.4,0.2c1.1,0,2.2,0,3.4,0c1.1,0,2.2-0.2,3.4-0.2c1.1,0,2.2,0,3.4-0.1c1.1,0,2.2-0.1,3.4-0.2&#10;&#9;&#9;&#9;c1.1-0.1,2.2-0.2,3.3-0.3c1.1-0.1,2.2-0.2,3.3-0.3c1.3-0.1,2.6-0.2,3.9-0.3c1.3-0.1,2.6-0.1,3.9-0.3c1.3-0.2,2.6-0.5,3.9-0.6&#10;&#9;&#9;&#9;c1.9-0.2,3.1-1,3.8-2.9c0.2-0.7,0.5-1.4,0.9-2c0.6-1,1.4-1.8,2.3-2.6c0.9-0.8,1.8-1.4,2.9-1.8c1-0.4,2.1-0.6,3.4-0.6&#10;&#9;&#9;&#9;c1,0,2,0,2.9,0.3c1,0.3,1.8,0.8,2.6,1.3c0.8,0.5,1.5,1.2,2.1,2.1c0.8,1.1,1.7,1.7,2.7,2c1,0.3,2.1,0.4,3.4,0.2&#10;&#9;&#9;&#9;c1.1-0.2,2.2-0.5,3.4-0.7c1.1-0.2,2.3-0.4,3.4-0.6c1.1-0.2,2.3-0.4,3.4-0.7c1.1-0.2,2.2-0.5,3.4-0.7c1.1-0.2,2.2-0.6,3.4-0.8&#10;&#9;&#9;&#9;c1.1-0.3,2.3-0.4,3.4-0.7c1.1-0.3,2.2-0.6,3.3-0.9c1.1-0.3,2.2-0.6,3.3-0.9c1.1-0.3,2.2-0.5,3.4-0.8c1.1-0.3,2.3-0.4,3.4-0.7&#10;&#9;&#9;&#9;c1.1-0.3,2.2-0.6,3.3-1c1.1-0.3,2.2-0.6,3.3-0.9c1.1-0.3,2.1-0.7,3.2-1c1.1-0.3,2.1-0.7,3.2-1c1.1-0.3,2.1-0.7,3.2-1&#10;&#9;&#9;&#9;c1.1-0.3,2.1-0.7,3.2-1c1.1-0.4,2.1-0.6,3.2-1c1-0.4,2.1-0.7,3.1-1.1s2.1-0.8,3.1-1.2c1-0.4,2.1-0.8,3.1-1.2&#10;&#9;&#9;&#9;c1-0.4,2.1-0.7,3.1-1.1c1-0.4,2-0.9,3-1.4c1-0.4,2.1-0.8,3.1-1.3c1-0.5,2.1-0.8,3.1-1.3c1-0.5,2-1.1,3-1.6c1-0.5,2-1,3-1.5&#10;&#9;&#9;&#9;c1-0.5,2-1.1,2.9-1.7c1-0.6,1.9-1.2,2.9-1.8c0.9-0.6,1.8-1.3,2.7-2c0.9-0.7,1.8-1.4,2.7-2.2c0.9-0.8,1.7-1.5,2.5-2.4&#10;&#9;&#9;&#9;c0.8-0.9,1.4-1.8,1.7-2.6c0.5-1.1,0.7-2.1,0.5-3.1c-0.2-0.9-0.9-1.7-1.8-2.5c-0.7-0.6-1.5-1.2-2.6-1.7c-1-0.5-2.1-1-3.2-1.4&#10;&#9;&#9;&#9;c-1.1-0.4-2.3-0.5-3.4-0.8c-1.1-0.2-2.1-0.5-3.2-0.7c-1.1-0.2-2.2-0.3-3.3-0.4c-1.1-0.1-2.2-0.3-3.3-0.4c-1.1-0.1-2.2,0-3.3-0.1&#10;&#9;&#9;&#9;c-1.1-0.1-2.2-0.2-3.3-0.2c-1.1,0-2.2-0.2-3.3-0.2C544,451.6,542.9,451.7,541.9,451.7z" style="fill: rgb(204, 204, 204); opacity: 1;"/>
	</g><g transform="matrix(1, 0, 0, 1, -100.44575500488281, -83.44724273681642)">
		<path class="st0" d="M417.9,528.2c0,1.1-0.3,2.1-0.8,3c-0.5,0.9-1.3,1.7-2.2,2.3c-0.9,0.6-1.9,0.9-3,0.9c-1.2,0-2.2-0.2-3.2-0.7&#10;&#9;&#9;&#9;c-1-0.5-1.8-1.3-2.3-2.3c-0.5-0.9-0.9-2-0.9-3.1c0-1.1,0.3-2.1,0.8-3c0.5-0.9,1.2-1.7,2.1-2.3c0.9-0.6,1.9-0.9,3-0.9&#10;&#9;&#9;&#9;c1.1,0,2.2,0.2,3.2,0.8c1,0.5,1.8,1.3,2.4,2.3C417.6,526,417.9,527.1,417.9,528.2z" style="fill: rgb(204, 204, 204); opacity: 1;"/>
	</g><g transform="matrix(1, 0, 0, 1, -100.44575500488281, -83.44724273681642)">
		<path class="st3" d="M390.1,463.1c1.1,0,2.2,0.2,3.1,0.7c0.9,0.5,1.7,1.2,2.3,2.1c0.5,0.9,0.9,1.9,0.9,3c0,1.2-0.2,2.2-0.7,3.2&#10;&#9;&#9;&#9;c-0.5,1-1.3,1.8-2.2,2.4c-0.9,0.6-2,0.9-3.1,0.9c-1.1,0-2.2-0.3-3.1-0.8c-0.9-0.6-1.7-1.3-2.3-2.3c-0.5-0.9-0.8-2-0.8-3.1&#10;&#9;&#9;&#9;c0-1.1,0.3-2.1,0.8-3c0.5-0.9,1.3-1.7,2.2-2.2C388,463.4,389,463.1,390.1,463.1z" style="fill: rgb(204, 204, 204); opacity: 1;"/>
	</g><g transform="matrix(1, 0, 0, 1, -100.44575500488281, -83.44724273681642)">
		<path class="st4" d="M589.4,494.3c-1.1,0-2.2-0.3-3.2-0.8c-1-0.5-1.8-1.3-2.3-2.2c-0.5-0.9-0.9-2-0.9-3.1c0-1.1,0.3-2.1,0.8-3&#10;&#9;&#9;&#9;c0.5-0.9,1.3-1.7,2.2-2.2c0.9-0.5,1.9-0.8,3-0.9c1.1,0,2.1,0.2,3,0.7c0.9,0.5,1.7,1.2,2.3,2.1c0.6,0.9,0.9,1.9,0.9,3&#10;&#9;&#9;&#9;c0.1,1.2-0.2,2.2-0.7,3.2c-0.5,1-1.3,1.8-2.2,2.4C591.6,493.9,590.5,494.2,589.4,494.3z" style="fill: rgb(204, 204, 204); opacity: 1;"/>
	</g><g transform="matrix(1, 0, 0, 1, -100.44575500488281, -83.44724273681642)">
		<path class="st0" d="M445.1,450.7c0-1.2,0.4-2.3,1.2-3.1c0.8-0.8,1.9-1.3,3.1-1.3c1.2,0,2.3,0.4,3.1,1.2c0.8,0.8,1.3,1.9,1.3,3.1&#10;&#9;&#9;&#9;c0,1.2-0.5,2.3-1.3,3.1c-0.8,0.8-1.9,1.4-3.1,1.4c-1.2,0-2.3-0.5-3.1-1.3C445.7,453,445.1,451.9,445.1,450.7z" style="fill: rgb(204, 204, 204); opacity: 1;"/>
	</g><g transform="matrix(1, 0, 0, 1, -100.44575500488281, -83.44724273681642)">
		<path class="st0" d="M431.1,539.7c-1.1,0-2.1-0.5-2.8-1.2c-0.7-0.7-1.2-1.7-1.2-2.8c0-1.1,0.5-2.2,1.2-2.9&#10;&#9;&#9;&#9;c0.8-0.8,1.8-1.2,2.9-1.2c1.2,0,2.2,0.5,2.9,1.4c0.7,0.8,1.1,1.9,1,3c-0.1,1.1-0.5,2.1-1.3,2.7&#10;&#9;&#9;&#9;C433.2,539.4,432.3,539.7,431.1,539.7z" style="fill: rgb(204, 204, 204); opacity: 1;"/>
	</g><g transform="matrix(1, 0, 0, 1, -100.44575500488281, -83.44724273681642)">
		<path class="st0" d="M333.5,505.2c1.5,0,2.9,1.6,2.9,3.2c-0.1,1.5-1.3,2.7-2.8,2.7c-1.8,0-3.1-1.2-3-2.9&#10;&#9;&#9;&#9;C330.5,506.6,332,505.2,333.5,505.2z" style="fill: rgb(204, 204, 204); opacity: 1;"/>
	</g><g transform="matrix(1, 0, 0, 1, -100.44575500488281, -83.44724273681642)">
		<path class="st4" d="M516,483.7c-1.2,0-2.4-0.3-3.3-0.8c-1-0.6-1.9-1.4-2.5-2.4c-0.6-1-0.9-2.1-0.8-3.3c0-1.1,0.4-2.2,1-3.1&#10;&#9;&#9;&#9;c0.6-0.9,1.4-1.7,2.4-2.1c1-0.5,2.1-0.7,3.2-0.6c0.5,0,1,0,1.4,0.3c1.1,0.6,2.1,0.9,3.1,0.8c1-0.1,2-0.5,3-1.2&#10;&#9;&#9;&#9;c1.5-1.1,3.2-0.6,4.3,0.6c1.1,1.2,1.4,2.9,0.6,4.4c-0.5,0.9-1.2,1.6-2.3,1.6c-1.4,0-2.5,0.4-3.5,1c-1,0.6-1.8,1.5-2.5,2.6&#10;&#9;&#9;&#9;C519.1,482.9,517.5,483.5,516,483.7z" style="fill: rgb(204, 204, 204); opacity: 1;"/>
	</g></g></svg>